<svg width="40" height="40" viewBox="0 0 329 329" fill="none" xmlns="http://www.w3.org/2000/svg">
<path d="M164.5 329C255.351 329 329 255.351 329 164.5C329 73.6492 255.351 0 164.5 0C73.6492 0 0 73.6492 0 164.5C0 255.351 73.6492 329 164.5 329Z" fill="#010101"/>
<path d="M228.3 236.01L260.12 218.84V114.24L228.3 131.41V236.01Z" fill="white"/>
<path d="M261.32 114.52L228.02 131.6L132.62 76.87L163.59 60.45C166.38 58.81 169.82 58.74 172.67 60.26L261.32 114.52Z" fill="white"/>
<path d="M229.14 160.94L197.62 178.22L105.32 129.95L131.57 113.53C134.36 111.89 137.8 111.82 140.65 113.34L229.14 160.94Z" fill="white"/>
<path d="M200.52 210.59L164.49 226.29L84.08 179.42L108.45 166.2C111.29 164.66 114.73 164.71 117.53 166.33L200.52 210.59Z" fill="white"/>
<path d="M196.88 252.73L228.3 235.72V160.28L196.88 177.29V252.73Z" fill="white"/>
<path d="M164.89 275.04L198.76 255.59V208.89L164.89 224.2V275.04Z" fill="white"/>
<path d="M165.58 276C163.75 276 161.92 275.53 160.28 274.58L72.68 224C69.42 222.12 67.39 218.6 67.39 214.83V113.68C67.39 109.91 69.42 106.39 72.69 104.51L160.29 53.93C163.56 52.04 167.62 52.05 170.88 53.93L258.49 104.51C261.75 106.39 263.78 109.91 263.78 113.68V214.84C263.78 218.61 261.75 222.13 258.48 224.01L170.88 274.59C169.25 275.53 167.41 276 165.58 276ZM79.18 214.14L165.58 264.02L251.98 214.14V114.38L165.58 64.5L79.18 114.38V214.14Z" fill="white"/>
</svg>
